<?xml version="1.0" standalone="no"?><!DOCTYPE svg PUBLIC "-//W3C//DTD SVG 1.1//EN" "http://www.w3.org/Graphics/SVG/1.1/DTD/svg11.dtd"><svg t="1505791130617" class="icon" style="" viewBox="0 0 1024 1024" version="1.1" xmlns="http://www.w3.org/2000/svg" p-id="2375" xmlns:xlink="http://www.w3.org/1999/xlink" width="200" height="200"><defs><style type="text/css"></style></defs><path d="M512 1024C229.232 1024 0 794.768 0 512 0 229.232 229.232 0 512 0 794.768 0 1024 229.232 1024 512 1024 794.768 794.768 1024 512 1024ZM719.088 346.992C698.912 329.808 668.816 332.48 651.888 352.96L455.344 590.592 388.112 512.96C371.184 492.48 341.088 489.808 320.912 506.992 300.736 524.176 298.096 554.704 315.024 575.168L411.888 687.04C423.072 700.56 439.984 706.144 456 703.536 472.016 706.144 488.928 700.56 500.112 687.04L724.976 415.168C741.904 394.704 739.264 364.176 719.088 346.992Z" p-id="2376" fill="#25be03"></path></svg>