<?xml version="1.0" standalone="no"?><!DOCTYPE svg PUBLIC "-//W3C//DTD SVG 1.1//EN" "http://www.w3.org/Graphics/SVG/1.1/DTD/svg11.dtd"><svg t="1503912622227" class="icon" style="" viewBox="0 0 1024 1024" version="1.1" xmlns="http://www.w3.org/2000/svg" p-id="5560" xmlns:xlink="http://www.w3.org/1999/xlink" width="200" height="200"><defs><style type="text/css"></style></defs><path d="M918.976 269.632l-0.448 0.128c-0.128-0.256-0.128-0.64-0.32-0.96-5.376-9.536-17.6-12.736-27.072-7.296-9.344 5.504-12.608 17.6-7.232 27.072 0.256 0.32 0.64 0.448 0.832 0.832l-0.192 0.064c36.672 63.744 57.792 137.536 57.792 216.256 0 240-195.264 435.264-435.264 435.264s-435.264-195.264-435.264-435.264c0-240 195.264-435.2 435.264-435.2 78.784 0 152.576 21.12 216.256 57.856 0.192 0 0.192 0.064 0.256 0.064 0.064 0.064 0.128 0.064 0.192 0.064s0.064 0 0.192 0.064l0 0c9.344 5.248 21.248 1.984 26.624-7.36 5.44-9.344 2.24-21.248-6.976-26.816l0.128-0.192c-69.632-40.256-150.464-63.36-236.672-63.36-262.272 0-474.88 212.608-474.88 474.816 0 262.272 212.608 474.816 474.88 474.816 262.144 0 474.816-212.544 474.816-474.816C981.888 419.776 958.848 339.2 918.976 269.632z" p-id="5561" fill="#ffffff"></path><path d="M807.04 696.128c0 0-6.336-75.072-34.944-82.56 0 0-53.184 33.664-67.008 51.264 0 0-21.504 16.896-35.456-1.792 0 0-11.712-11.968-25.856-24-11.712-22.016-26.112-42.624-37.568-57.664 30.784 16.32 99.456 41.6 170.752-6.656 0 0 52.736 37.184 70.272 120.96C847.296 695.68 848.704 697.152 807.04 696.128L807.04 696.128zM686.208 566.144c-38.848 0-73.344-17.856-96.384-45.632 6.272-9.024 11.712-18.56 16.32-28.608 16.96 26.368 46.464 43.904 80.064 43.904 52.672 0 95.296-42.688 95.296-95.296 0-52.672-42.624-95.36-95.296-95.36-25.664 0-48.896 10.304-66.048 26.816-2.24-10.944-5.696-21.44-9.536-31.552 20.992-16 47.168-25.472 75.648-25.472 69.504 0 125.632 56.192 125.632 125.632C811.84 509.888 755.712 566.144 686.208 566.144L686.208 566.144zM432.832 565.184c-85.184 0-154.176-68.928-154.176-154.048 0-85.056 68.992-153.984 154.176-153.984 85.056 0 153.984 68.928 153.984 153.984C586.816 496.192 517.888 565.184 432.832 565.184L432.832 565.184zM432.832 294.208c-64.576 0-117.056 52.352-117.056 116.864 0 64.576 52.416 116.992 117.056 116.992s116.928-52.352 116.928-116.992C549.76 346.56 497.408 294.208 432.832 294.208L432.832 294.208zM313.344 566.208c0 0 112 84.352 230.08 4.608 0 0 81.28 45.952 86.208 170.752 0 0 1.792 1.664-49.344 0.448 0 0 5.184-116.416-42.944-123.648 0 0-65.216 41.344-82.048 62.784 0 0-26.496 20.672-43.328-2.304 0 0-61.696-62.016-84.672-62.016 0 0-32.128 28.288-26.176 127.168l-53.632-0.448C247.424 743.68 245.824 615.232 313.344 566.208L313.344 566.208z" p-id="5562" fill="#ffffff"></path></svg>