<?xml version="1.0" standalone="no"?><!DOCTYPE svg PUBLIC "-//W3C//DTD SVG 1.1//EN" "http://www.w3.org/Graphics/SVG/1.1/DTD/svg11.dtd"><svg t="1503630531199" class="icon" style="" viewBox="0 0 1024 1024" version="1.1" xmlns="http://www.w3.org/2000/svg" p-id="5627" xmlns:xlink="http://www.w3.org/1999/xlink" width="200" height="200"><defs><style type="text/css"></style></defs><path d="M669.408 101.76l-78.08-72.864 26.976 10.624-554.304 0 39.52-39.52 0 916.288-39.52-39.52 131.744 0 0 39.52-131.744 0 0-916.288 554.304 0 78.08 72.864z" p-id="5628" fill="#9fa5bb"></path><path d="M215.52 79.04l0 421.6-39.52 0 0-441.376 581.856 0 181.664 169.536 0 588.032-39.52 0 0-579.456 6.272 14.464-169.696-158.368 13.472 5.312-554.304 0 19.776-19.776zM899.968 895.936l0-39.52 39.52 0 0 158.688-763.52 0 0-477.92 39.52 0 0 458.144-19.776-19.776 723.968 0-19.776 19.776 0-99.392z" p-id="5629" fill="#9fa5bb"></path><path d="M749.12 101.856l0-24.512 8.416-3.648 17.952 16.704 0 147.04-26.336-26.336 156.128 0 20.736 19.296-2.784 7.04-28.32 0-145.76-135.552zM933.568 237.408l-184.448 0 0-171.552 184.448 171.552z" p-id="5630" fill="#9fa5bb"></path><path d="M683.264 592.896c10.912 0 19.776-8.832 19.776-19.776s-8.832-19.776-19.776-19.776l-263.52 0c-10.912 0-19.776 8.832-19.776 19.776s8.864 19.776 19.776 19.776l263.52 0z" p-id="5631" fill="#9fa5bb"></path><path d="M531.744 698.304c0 10.912 8.864 19.776 19.776 19.776s19.776-8.832 19.776-19.776l0-263.52c0-10.912-8.864-19.776-19.776-19.776s-19.776 8.864-19.776 19.776l0 263.52z" p-id="5632" fill="#9fa5bb"></path></svg>